<svg width="63" height="65" viewBox="0 0 63 65" fill="none" xmlns="http://www.w3.org/2000/svg">
<path d="M0 9.84375C0 4.4072 4.4072 0 9.84375 0H53.1562C58.5928 0 63 4.4072 63 9.84375V64.9688H0V9.84375Z" fill="#E58439"/>
<path d="M5 13.8438C5 8.4072 9.4072 4 14.8438 4H49.1562C54.5928 4 59 8.4072 59 13.8438V60H5V13.8438Z" fill="#3C2B1D"/>
<path d="M41.9022 52.2397V23.5252H49.9999V52.2397H41.9022ZM41.8525 18.6567V13.043H49.9999V18.6567H41.8525Z" fill="#E58439"/>
<path d="M13 52.24L20.6009 12H30.7354L38.237 52.24H30.0399L28.6986 43.7449H22.7868L21.3958 52.24H13ZM23.5816 38.4292H27.854L25.7178 22.7307L23.5816 38.4292Z" fill="#E58439"/>
</svg>
