<svg width="706" height="108" viewBox="0 0 706 108" fill="none" xmlns="http://www.w3.org/2000/svg">
<circle cx="18.4855" cy="50.1625" r="17.7153" fill="#FCF6E2" stroke="black" stroke-width="1.54046"/>
<circle cx="252.635" cy="50.1625" r="17.7153" fill="#FCF6E2" stroke="black" stroke-width="1.54046"/>
<circle cx="488.325" cy="50.1625" r="17.7153" fill="#FCF6E2" stroke="black" stroke-width="1.54046"/>
<line x1="35.4307" y1="49.3924" x2="234.15" y2="49.3924" stroke="black" stroke-width="1.54046"/>
<line x1="271.12" y1="49.3924" x2="469.839" y2="49.3924" stroke="black" stroke-width="1.54046"/>
<line x1="505.27" y1="49.3924" x2="531.457" y2="49.3924" stroke="black" stroke-width="1.54046"/>
<line x1="531.457" y1="49.3924" x2="705.529" y2="49.3924" stroke="black" stroke-width="1.54046" stroke-dasharray="15.4 15.4"/>
<path d="M2.43097 24.8799V13.0906C2.29693 13.1637 2.14462 13.2368 1.97402 13.3099C1.80343 13.383 1.62065 13.4622 1.42568 13.5475C1.2429 13.6207 1.06012 13.6938 0.877343 13.7669C0.706748 13.84 0.548339 13.9131 0.402115 13.9862V11.7197C0.536154 11.6466 0.725026 11.5491 0.968732 11.4273C1.21244 11.2933 1.47442 11.147 1.75469 10.9886C2.03495 10.8302 2.29693 10.6718 2.54064 10.5134C2.78434 10.3428 2.96712 10.1966 3.08898 10.0747H5.48339V24.8799H2.43097ZM11.8033 25.0992C10.8528 25.0992 10.1034 24.953 9.55509 24.6605C9.00676 24.3681 8.61683 23.9416 8.3853 23.3811C8.15378 22.8084 8.03802 22.1077 8.03802 21.2791C8.03802 21.2426 8.03802 21.206 8.03802 21.1695C8.03802 21.1207 8.03802 21.0781 8.03802 21.0415H10.8894C10.8894 21.6386 10.9381 22.0834 11.0356 22.3758C11.1453 22.6561 11.4073 22.7962 11.8216 22.7962C12.1018 22.7962 12.309 22.7109 12.443 22.5403C12.5771 22.3697 12.6623 22.0712 12.6989 21.6447C12.7476 21.206 12.772 20.6089 12.772 19.8534V18.5374C12.6136 18.7933 12.3699 18.9883 12.0409 19.1223C11.7241 19.2564 11.3646 19.3356 10.9625 19.3599C10.1826 19.3721 9.55509 19.1772 9.07987 18.775C8.60464 18.3729 8.26345 17.8307 8.0563 17.1483C7.84915 16.4659 7.74558 15.7226 7.74558 14.9184C7.74558 13.8826 7.87352 12.9931 8.12941 12.2498C8.39749 11.4943 8.83007 10.9094 9.42715 10.4951C10.0242 10.0808 10.8163 9.87367 11.8033 9.87367C12.7781 9.87367 13.5641 10.0686 14.1611 10.4586C14.7582 10.8485 15.1908 11.3968 15.4589 12.1036C15.7391 12.7981 15.8793 13.6207 15.8793 14.5711V20.0911C15.8793 21.0537 15.7635 21.9128 15.532 22.6682C15.3127 23.4237 14.9105 24.0208 14.3256 24.4595C13.7407 24.886 12.9 25.0992 11.8033 25.0992ZM11.8398 17.0204C12.0835 17.0204 12.2785 16.9533 12.4247 16.8193C12.571 16.6853 12.6867 16.5573 12.772 16.4355V14.0228C12.772 13.6816 12.7476 13.3709 12.6989 13.0906C12.6502 12.7981 12.5588 12.5666 12.4247 12.396C12.2907 12.2132 12.0835 12.1219 11.8033 12.1219C11.5352 12.1219 11.3342 12.2193 11.2001 12.4143C11.0661 12.5971 10.9747 12.8773 10.9259 13.2551C10.8894 13.6207 10.8711 14.0776 10.8711 14.6259C10.8711 15.1012 10.8833 15.5216 10.9077 15.8871C10.9442 16.2405 11.0295 16.5208 11.1636 16.7279C11.2976 16.9229 11.523 17.0204 11.8398 17.0204ZM21.6384 25.0992C20.6879 25.0992 19.9386 24.953 19.3902 24.6605C18.8419 24.3681 18.4519 23.9416 18.2204 23.3811C17.9889 22.8084 17.8731 22.1077 17.8731 21.2791C17.8731 21.2426 17.8731 21.206 17.8731 21.1695C17.8731 21.1207 17.8731 21.0781 17.8731 21.0415H20.7245C20.7245 21.6386 20.7732 22.0834 20.8707 22.3758C20.9804 22.6561 21.2424 22.7962 21.6567 22.7962C21.9369 22.7962 22.1441 22.7109 22.2781 22.5403C22.4122 22.3697 22.4975 22.0712 22.534 21.6447C22.5828 21.206 22.6071 20.6089 22.6071 19.8534V18.5374C22.4487 18.7933 22.205 18.9883 21.876 19.1223C21.5592 19.2564 21.1997 19.3356 20.7976 19.3599C20.0178 19.3721 19.3902 19.1772 18.915 18.775C18.4398 18.3729 18.0986 17.8307 17.8914 17.1483C17.6843 16.4659 17.5807 15.7226 17.5807 14.9184C17.5807 13.8826 17.7086 12.9931 17.9645 12.2498C18.2326 11.4943 18.6652 10.9094 19.2623 10.4951C19.8593 10.0808 20.6514 9.87367 21.6384 9.87367C22.6132 9.87367 23.3992 10.0686 23.9963 10.4586C24.5933 10.8485 25.0259 11.3968 25.294 12.1036C25.5743 12.7981 25.7144 13.6207 25.7144 14.5711V20.0911C25.7144 21.0537 25.5986 21.9128 25.3671 22.6682C25.1478 23.4237 24.7457 24.0208 24.1608 24.4595C23.5759 24.886 22.7351 25.0992 21.6384 25.0992ZM21.675 17.0204C21.9187 17.0204 22.1136 16.9533 22.2599 16.8193C22.4061 16.6853 22.5218 16.5573 22.6071 16.4355V14.0228C22.6071 13.6816 22.5828 13.3709 22.534 13.0906C22.4853 12.7981 22.3939 12.5666 22.2599 12.396C22.1258 12.2132 21.9187 12.1219 21.6384 12.1219C21.3703 12.1219 21.1693 12.2193 21.0352 12.4143C20.9012 12.5971 20.8098 12.8773 20.7611 13.2551C20.7245 13.6207 20.7062 14.0776 20.7062 14.6259C20.7062 15.1012 20.7184 15.5216 20.7428 15.8871C20.7793 16.2405 20.8646 16.5208 20.9987 16.7279C21.1327 16.9229 21.3581 17.0204 21.675 17.0204ZM27.5697 24.8799L30.7867 12.396H26.7472V10.0747H33.766V12.1767L30.5491 24.8799H27.5697Z" fill="black"/>
<path d="M234.707 96.5146V94.3578L238.253 88.911C238.521 88.5089 238.771 88.119 239.003 87.7412C239.246 87.3635 239.441 86.9796 239.588 86.5897C239.746 86.1998 239.825 85.7916 239.825 85.3651C239.825 84.9386 239.74 84.6218 239.569 84.4146C239.399 84.2075 239.167 84.1039 238.875 84.1039C238.546 84.1039 238.29 84.1953 238.107 84.3781C237.924 84.5609 237.796 84.8046 237.723 85.1092C237.662 85.4138 237.632 85.755 237.632 86.1328V86.8639H234.671V86.0779C234.671 85.2006 234.811 84.4207 235.091 83.7383C235.372 83.0438 235.816 82.5015 236.426 82.1116C237.035 81.7095 237.833 81.5084 238.82 81.5084C240.148 81.5084 241.147 81.8557 241.818 82.5503C242.5 83.2327 242.841 84.1892 242.841 85.4199C242.841 86.017 242.744 86.5714 242.549 87.0832C242.366 87.595 242.116 88.0946 241.799 88.582C241.495 89.0572 241.166 89.5568 240.812 90.0808L238.107 94.1202H242.439V96.5146H234.707ZM248.373 96.7888C247.484 96.7888 246.74 96.6121 246.143 96.2588C245.546 95.8932 245.095 95.3936 244.791 94.76C244.486 94.1263 244.334 93.3891 244.334 92.5483V85.8403C244.334 84.9752 244.474 84.2197 244.754 83.5738C245.047 82.9158 245.492 82.4041 246.089 82.0385C246.686 81.6729 247.447 81.4902 248.373 81.4902C249.299 81.4902 250.055 81.6729 250.64 82.0385C251.237 82.4041 251.676 82.9158 251.956 83.5738C252.248 84.2197 252.394 84.9752 252.394 85.8403V92.5483C252.394 93.3769 252.242 94.1141 251.938 94.76C251.633 95.3936 251.182 95.8932 250.585 96.2588C249.988 96.6121 249.251 96.7888 248.373 96.7888ZM248.373 94.0654C248.666 94.0654 248.873 93.974 248.995 93.7912C249.129 93.5963 249.208 93.3769 249.232 93.1332C249.269 92.8773 249.287 92.658 249.287 92.4752V85.9134C249.287 85.7063 249.275 85.4748 249.251 85.2189C249.226 84.9508 249.147 84.7193 249.013 84.5243C248.891 84.3171 248.678 84.2136 248.373 84.2136C248.069 84.2136 247.849 84.3171 247.715 84.5243C247.593 84.7193 247.52 84.9508 247.496 85.2189C247.472 85.4748 247.459 85.7063 247.459 85.9134V92.4752C247.459 92.658 247.478 92.8773 247.514 93.1332C247.551 93.3769 247.63 93.5963 247.752 93.7912C247.886 93.974 248.093 94.0654 248.373 94.0654ZM255.827 96.5146V84.7254C255.693 84.7985 255.541 84.8716 255.37 84.9447C255.2 85.0178 255.017 85.097 254.822 85.1823C254.639 85.2554 254.456 85.3285 254.274 85.4016C254.103 85.4748 253.945 85.5479 253.798 85.621V83.3545C253.932 83.2814 254.121 83.1839 254.365 83.0621C254.609 82.928 254.871 82.7818 255.151 82.6234C255.431 82.465 255.693 82.3066 255.937 82.1482C256.181 81.9776 256.363 81.8313 256.485 81.7095H258.88V96.5146H255.827ZM265.09 96.7888C264.005 96.7888 263.183 96.5999 262.622 96.2222C262.074 95.8323 261.702 95.29 261.507 94.5955C261.312 93.9009 261.215 93.0967 261.215 92.1828H264.158C264.158 92.7433 264.188 93.2002 264.249 93.5536C264.31 93.907 264.42 94.1629 264.578 94.3213C264.749 94.4675 264.986 94.5345 265.291 94.5223C265.608 94.5102 265.833 94.3822 265.967 94.1385C266.101 93.8948 266.18 93.5475 266.205 93.0967C266.241 92.6336 266.26 92.0792 266.26 91.4334C266.26 90.946 266.229 90.5134 266.168 90.1356C266.119 89.7579 266.01 89.4594 265.839 89.24C265.681 89.0085 265.437 88.8927 265.108 88.8927C264.803 88.8927 264.554 89.0024 264.359 89.2217C264.164 89.4411 264.024 89.7823 263.938 90.2453H261.306L261.58 81.7095H268.49V84.2684H264.03L263.865 87.3208C263.987 87.1502 264.219 87.004 264.56 86.8822C264.901 86.7481 265.267 86.6628 265.656 86.6263C266.412 86.541 267.046 86.6811 267.557 87.0467C268.081 87.4 268.471 87.9423 268.727 88.6734C268.995 89.4045 269.129 90.3001 269.129 91.3603C269.129 92.1523 269.081 92.8834 268.983 93.5536C268.886 94.2116 268.697 94.7843 268.416 95.2717C268.136 95.747 267.728 96.1186 267.192 96.3867C266.656 96.6548 265.955 96.7888 265.09 96.7888Z" fill="black"/>
<path d="M470.494 22V19.8432L474.039 14.3964C474.308 13.9942 474.557 13.6043 474.789 13.2266C475.033 12.8488 475.228 12.465 475.374 12.0751C475.532 11.6851 475.611 11.2769 475.611 10.8504C475.611 10.424 475.526 10.1071 475.355 9.89998C475.185 9.69283 474.953 9.58926 474.661 9.58926C474.332 9.58926 474.076 9.68065 473.893 9.86343C473.71 10.0462 473.583 10.2899 473.509 10.5945C473.448 10.8992 473.418 11.2404 473.418 11.6181V12.3492H470.457V11.5633C470.457 10.6859 470.597 9.90608 470.877 9.2237C471.158 8.52914 471.602 7.98689 472.212 7.59696C472.821 7.19484 473.619 6.99379 474.606 6.99379C475.934 6.99379 476.933 7.34107 477.604 8.03563C478.286 8.71801 478.627 9.67456 478.627 10.9053C478.627 11.5024 478.53 12.0568 478.335 12.5686C478.152 13.0804 477.902 13.5799 477.585 14.0674C477.281 14.5426 476.952 15.0422 476.598 15.5662L473.893 19.6056H478.225V22H470.494ZM484.159 22.2742C483.27 22.2742 482.527 22.0975 481.93 21.7441C481.332 21.3785 480.882 20.879 480.577 20.2453C480.272 19.6117 480.12 18.8745 480.12 18.0337V11.3257C480.12 10.4605 480.26 9.70502 480.54 9.0592C480.833 8.40119 481.278 7.88941 481.875 7.52385C482.472 7.15829 483.233 6.97551 484.159 6.97551C485.086 6.97551 485.841 7.15829 486.426 7.52385C487.023 7.88941 487.462 8.40119 487.742 9.0592C488.034 9.70502 488.181 10.4605 488.181 11.3257V18.0337C488.181 18.8623 488.028 19.5995 487.724 20.2453C487.419 20.879 486.968 21.3785 486.371 21.7441C485.774 22.0975 485.037 22.2742 484.159 22.2742ZM484.159 19.5508C484.452 19.5508 484.659 19.4594 484.781 19.2766C484.915 19.0816 484.994 18.8623 485.019 18.6186C485.055 18.3627 485.073 18.1433 485.073 17.9606V11.3988C485.073 11.1916 485.061 10.9601 485.037 10.7042C485.012 10.4361 484.933 10.2046 484.799 10.0097C484.677 9.8025 484.464 9.69893 484.159 9.69893C483.855 9.69893 483.635 9.8025 483.501 10.0097C483.38 10.2046 483.306 10.4361 483.282 10.7042C483.258 10.9601 483.246 11.1916 483.246 11.3988V17.9606C483.246 18.1433 483.264 18.3627 483.3 18.6186C483.337 18.8623 483.416 19.0816 483.538 19.2766C483.672 19.4594 483.879 19.5508 484.159 19.5508ZM489.932 22V19.8432L493.478 14.3964C493.746 13.9942 493.996 13.6043 494.227 13.2266C494.471 12.8488 494.666 12.465 494.812 12.0751C494.97 11.6851 495.05 11.2769 495.05 10.8504C495.05 10.424 494.964 10.1071 494.794 9.89998C494.623 9.69283 494.392 9.58926 494.099 9.58926C493.77 9.58926 493.514 9.68065 493.331 9.86343C493.149 10.0462 493.021 10.2899 492.948 10.5945C492.887 10.8992 492.856 11.2404 492.856 11.6181V12.3492H489.895V11.5633C489.895 10.6859 490.035 9.90608 490.316 9.2237C490.596 8.52914 491.041 7.98689 491.65 7.59696C492.259 7.19484 493.057 6.99379 494.044 6.99379C495.372 6.99379 496.372 7.34107 497.042 8.03563C497.724 8.71801 498.065 9.67456 498.065 10.9053C498.065 11.5024 497.968 12.0568 497.773 12.5686C497.59 13.0804 497.34 13.5799 497.024 14.0674C496.719 14.5426 496.39 15.0422 496.037 15.5662L493.331 19.6056H497.663V22H489.932ZM499.321 22V19.8432L502.867 14.3964C503.135 13.9942 503.384 13.6043 503.616 13.2266C503.86 12.8488 504.055 12.465 504.201 12.0751C504.359 11.6851 504.438 11.2769 504.438 10.8504C504.438 10.424 504.353 10.1071 504.183 9.89998C504.012 9.69283 503.78 9.58926 503.488 9.58926C503.159 9.58926 502.903 9.68065 502.72 9.86343C502.538 10.0462 502.41 10.2899 502.336 10.5945C502.276 10.8992 502.245 11.2404 502.245 11.6181V12.3492H499.284V11.5633C499.284 10.6859 499.424 9.90608 499.704 9.2237C499.985 8.52914 500.429 7.98689 501.039 7.59696C501.648 7.19484 502.446 6.99379 503.433 6.99379C504.761 6.99379 505.761 7.34107 506.431 8.03563C507.113 8.71801 507.454 9.67456 507.454 10.9053C507.454 11.5024 507.357 12.0568 507.162 12.5686C506.979 13.0804 506.729 13.5799 506.412 14.0674C506.108 14.5426 505.779 15.0422 505.425 15.5662L502.72 19.6056H507.052V22H499.321Z" fill="black"/>
</svg>
