<svg width="50" height="187" viewBox="0 0 50 187" fill="none" xmlns="http://www.w3.org/2000/svg">
<path d="M7.14561 166.967C7.88285 169.633 9.88192 170.965 13.1428 170.965C15.2411 170.965 16.829 170.257 17.9065 168.839L22.33 171.391C20.2317 174.425 17.1409 175.942 13.0577 175.942C9.54165 175.942 6.72027 174.879 4.5936 172.752C2.46694 170.625 1.4036 167.946 1.4036 164.713C1.4036 161.509 2.45276 158.843 4.55107 156.717C6.64938 154.562 9.34316 153.484 12.6324 153.484C15.7515 153.484 18.3177 154.562 20.3309 156.717C22.3725 158.872 23.3934 161.537 23.3934 164.713C23.3934 165.422 23.3225 166.173 23.1807 166.967H7.14561ZM7.06054 162.714H17.9065C17.5946 161.268 16.9425 160.19 15.95 159.481C14.9859 158.773 13.8801 158.418 12.6324 158.418C11.1579 158.418 9.93863 158.801 8.97454 159.567C8.01045 160.304 7.37245 161.353 7.06054 162.714ZM39.048 153.484C41.3731 153.484 43.2871 154.264 44.79 155.824C46.3212 157.383 47.0868 159.538 47.0868 162.289V175.346H41.6V162.969C41.6 161.551 41.2172 160.474 40.4516 159.737C39.686 158.971 38.6652 158.588 37.3892 158.588C35.9714 158.588 34.8372 159.028 33.9865 159.907C33.1358 160.786 32.7105 162.104 32.7105 163.862V175.346H27.2237V154.08H32.7105V156.462C34.0432 154.477 36.1557 153.484 39.048 153.484Z" fill="black"/>
<rect x="12.2395" y="108.709" width="27.3573" height="27.3573" fill="black" stroke="black" stroke-width="1.43986"/>
<rect x="12.2395" y="72.7128" width="27.3573" height="27.3573" fill="black" stroke="black" stroke-width="1.43986"/>
<rect x="12.2395" y="36.7163" width="27.3573" height="27.3573" stroke="black" stroke-width="1.43986"/>
<rect x="12.2395" y="0.719928" width="27.3573" height="27.3573" stroke="black" stroke-width="1.43986"/>
</svg>
