<svg width="37" height="37" viewBox="0 0 37 37" fill="none" xmlns="http://www.w3.org/2000/svg">
<path d="M18.5 37C28.7173 37 37 28.7173 37 18.5C37 8.28273 28.7173 0 18.5 0C8.28273 0 0 8.28273 0 18.5C0 28.7173 8.28273 37 18.5 37Z" fill="black"/>
<path fill-rule="evenodd" clip-rule="evenodd" d="M10.1184 10V16.7319C11.1224 15.51 12.3245 14.8944 13.7203 14.8944C14.439 14.8944 15.0836 15.0335 15.6597 15.3129C16.2394 15.5888 16.6718 15.9436 16.9627 16.3736C17.2572 16.8072 17.4554 17.2837 17.5621 17.8077C17.6687 18.3293 17.7221 19.142 17.7221 20.2421V27.44H14.6036V20.9574C14.6036 19.6718 14.5468 18.8556 14.4286 18.5102C14.3092 18.1612 14.1017 17.8888 13.8014 17.6848C13.5012 17.4784 13.1267 17.3753 12.6758 17.3753C12.1587 17.3753 11.695 17.5086 11.2916 17.7694C10.8812 18.0326 10.5845 18.4279 10.3978 18.9553C10.2077 19.4828 10.1126 20.2618 10.1161 21.2936L10.1126 27.44H7V10H10.1184ZM22.3974 10V16.7319C23.4013 15.51 24.6035 14.8944 25.9992 14.8944C26.7145 14.8944 27.3625 15.0335 27.941 15.3129C28.5171 15.5888 28.9507 15.9436 29.2417 16.3736C29.5361 16.8072 29.7344 17.2837 29.8422 17.8077C29.9488 18.3293 30.0022 19.142 30.0022 20.2421V27.44H26.8872V20.9574C26.8872 19.6718 26.8281 18.8556 26.7087 18.5102C26.5893 18.1612 26.3818 17.8888 26.0815 17.6848C25.7848 17.4784 25.4068 17.3753 24.9559 17.3753C24.4388 17.3753 23.9763 17.5086 23.5717 17.7694C23.1648 18.0326 22.868 18.4279 22.6779 18.9553C22.4913 19.4828 22.3962 20.2618 22.3962 21.2936V27.44H19.2813V10H22.3962H22.3974Z" fill="#AAD7B8"/>
</svg>
