<svg width="37" height="37" viewBox="0 0 37 37" fill="none" xmlns="http://www.w3.org/2000/svg">
<path d="M18.5 37C28.7173 37 37 28.7173 37 18.5C37 8.28273 28.7173 0 18.5 0C8.28273 0 0 8.28273 0 18.5C0 28.7173 8.28273 37 18.5 37Z" fill="black"/>
<path d="M29.1514 10.7151C29.1459 10.7094 29.1412 10.7038 29.1356 10.6985C29.1219 10.6856 29.1074 10.6739 29.0929 10.663C28.6086 10.2514 27.9688 10 27.2676 10H9.73113C9.02988 10 8.39012 10.251 7.90582 10.663C7.89087 10.6739 7.87678 10.686 7.86311 10.6985C7.85756 10.7038 7.85244 10.7094 7.84731 10.7151C7.32586 11.1856 7 11.8478 7 12.581V24.4194C7 25.1526 7.32586 25.8148 7.84731 26.2853C7.85286 26.291 7.85756 26.2966 7.86354 26.3019C7.87721 26.3148 7.89173 26.3265 7.90668 26.3374C8.39098 26.749 9.03073 27 9.73198 27H27.2684C27.9697 27 28.6095 26.749 29.0938 26.337C29.1087 26.3261 29.1228 26.314 29.1365 26.3015C29.142 26.2962 29.1471 26.2902 29.1527 26.2849C29.6741 25.8144 30 25.1522 30 24.419V12.5806C30 11.8474 29.6741 11.1848 29.1527 10.7147L29.1514 10.7151ZM21.6981 18.5004L28.7346 11.7768C28.8806 12.0132 28.9643 12.288 28.9643 12.5814V24.4198C28.9643 24.7128 28.8802 24.9876 28.7346 25.2245L21.6981 18.5008V18.5004ZM27.2676 10.9778C27.517 10.9778 27.7536 11.0294 27.9671 11.121L20.6078 18.153C20.6078 18.153 20.6078 18.153 20.6074 18.1534L19.3249 19.3789C19.1054 19.5887 18.8124 19.7041 18.5002 19.7041C18.188 19.7041 17.8951 19.5887 17.6755 19.3785L16.393 18.153C16.393 18.153 16.3926 18.1526 16.3922 18.1522C16.3922 18.1522 16.3922 18.1522 16.3918 18.1518L9.03287 11.1198C9.2464 11.0282 9.483 10.9765 9.73241 10.9765H27.2689L27.2676 10.9778ZM8.26371 25.2241C8.11765 24.9872 8.03394 24.7128 8.03394 24.4194V12.581C8.03394 12.288 8.11808 12.0132 8.26371 11.7763L15.3002 18.5L8.26371 25.2237V25.2241ZM9.73113 26.0235C9.48172 26.0235 9.24512 25.9718 9.03158 25.8802L16.0275 19.1953L16.9388 20.0661C17.3544 20.4632 17.9083 20.6819 18.4989 20.6819C19.0896 20.6819 19.6439 20.4632 20.059 20.0661L20.9704 19.1953L27.9663 25.8802C27.7527 25.9718 27.5161 26.0235 27.2667 26.0235H9.73113Z" fill="#AAD7B8"/>
</svg>
