<svg width="54" height="55" viewBox="0 0 54 55" fill="none" xmlns="http://www.w3.org/2000/svg">
<rect x="1.23054" y="1.23054" width="51.5389" height="51.6826" fill="#FCF6E2" stroke="black" stroke-width="2.46108"/>
<path d="M8.94808 23.7651C8.46753 24.2457 8.46753 25.0248 8.94808 25.5054L16.7792 33.3365C17.2597 33.817 18.0389 33.817 18.5194 33.3365C19 32.8559 19 32.0768 18.5194 31.5962L11.5585 24.6353L18.5194 17.6743C19 17.1937 19 16.4146 18.5194 15.934C18.0389 15.4535 17.2597 15.4535 16.7792 15.934L8.94808 23.7651ZM41.7273 24.6353L41.7273 23.4047L9.8182 23.4047L9.8182 24.6353L9.8182 25.8658L41.7273 25.8658L41.7273 24.6353Z" fill="black"/>
</svg>
