<svg width="63" height="65" viewBox="0 0 63 65" fill="none" xmlns="http://www.w3.org/2000/svg">
<path d="M0 9.84375C0 4.4072 4.4072 0 9.84375 0H53.1562C58.5928 0 63 4.4072 63 9.84375V64.9688H0V9.84375Z" fill="#7FD3EB"/>
<path d="M5 13.8438C5 8.4072 9.4072 4 14.8438 4H49.1562C54.5928 4 59 8.4072 59 13.8438V60H5V13.8438Z" fill="#2C2C62"/>
<path d="M45.0745 51.5612C42.6919 51.5612 40.7011 51.0283 39.1022 49.9623C37.5347 48.8964 36.2493 47.1564 35.2461 44.7425L40.466 42.4382C40.9676 43.6609 41.5476 44.6327 42.2059 45.3538C42.8957 46.0435 43.6481 46.3884 44.4632 46.3884C45.0588 46.3884 45.4978 46.263 45.7799 46.0122C46.0934 45.7613 46.2502 45.4165 46.2502 44.9776C46.2502 44.2565 45.968 43.5982 45.4037 43.0025C44.8707 42.4068 43.8989 41.529 42.4881 40.369L40.513 38.7231C39.0709 37.5005 37.9266 36.3248 37.0801 35.1962C36.265 34.0362 35.8574 32.6098 35.8574 30.9168C35.8574 29.4433 36.2336 28.1423 36.9861 27.0137C37.7698 25.885 38.8044 25.0072 40.0898 24.3802C41.3751 23.7532 42.7546 23.4397 44.2281 23.4397C46.4853 23.4397 48.3663 24.051 49.8712 25.2737C51.376 26.4964 52.4419 28.2207 53.0689 30.4466L48.0372 32.7038C47.849 32.1081 47.5826 31.5125 47.2377 30.9168C46.8929 30.3212 46.4853 29.8196 46.015 29.412C45.5448 29.0044 45.0118 28.8007 44.4162 28.8007C43.9145 28.8007 43.507 28.9417 43.1935 29.2239C42.9113 29.506 42.7702 29.8823 42.7702 30.3525C42.7702 30.9482 43.0994 31.5909 43.7578 32.2806C44.4475 32.9703 45.388 33.8011 46.5793 34.773L48.5074 36.4659C49.2912 37.1242 50.0593 37.8296 50.8117 38.5821C51.5641 39.3345 52.1754 40.1653 52.6457 41.0744C53.1473 41.9836 53.3981 43.0182 53.3981 44.1781C53.3981 45.7457 53.0062 47.0938 52.2225 48.2224C51.4387 49.3196 50.4041 50.1504 49.1188 50.7147C47.8647 51.2791 46.5166 51.5612 45.0745 51.5612Z" fill="#7FD3EB"/>
<path d="M11.4561 51.091V13H24.2471C26.5357 13 28.4168 13.4389 29.8902 14.3167C31.3637 15.1632 32.461 16.4172 33.182 18.0788C33.9031 19.709 34.2636 21.6998 34.2636 24.0511C34.2636 26.9981 33.7777 29.2553 32.8058 30.8228C31.834 32.359 30.5172 33.4249 28.8557 34.0206C27.1941 34.6163 25.3287 34.9141 23.2596 34.9141H19.8737V51.091H11.4561ZM19.8737 29.0359H22.6953C23.7298 29.0359 24.5136 28.8477 25.0466 28.4715C25.5795 28.0953 25.9244 27.531 26.0811 26.7786C26.2692 26.0262 26.3633 25.07 26.3633 23.91C26.3633 22.9382 26.2849 22.0917 26.1282 21.3706C26.0027 20.6182 25.6736 20.0225 25.1406 19.5836C24.6076 19.1447 23.7769 18.9253 22.6482 18.9253H19.8737V29.0359Z" fill="#7FD3EB"/>
</svg>
