<svg width="40" height="187" viewBox="0 0 40 187" fill="none" xmlns="http://www.w3.org/2000/svg">
<path d="M8.3073 159.216V176.786H2.32604V154.315H7.95424L8.3073 159.216ZM15.0777 154.17L14.9739 159.715C14.6831 159.673 14.3301 159.639 13.9147 159.611C13.5132 159.57 13.1463 159.549 12.814 159.549C11.9694 159.549 11.2356 159.659 10.6126 159.881C10.0034 160.089 9.49109 160.4 9.07572 160.816C8.6742 161.231 8.3696 161.736 8.16192 162.332C7.96808 162.927 7.85732 163.605 7.82963 164.367L6.62507 163.993C6.62507 162.539 6.77045 161.203 7.0612 159.985C7.35196 158.753 7.77425 157.68 8.32807 156.766C8.89573 155.852 9.58801 155.146 10.4049 154.647C11.2218 154.149 12.1563 153.9 13.2086 153.9C13.5409 153.9 13.8801 153.927 14.2262 153.983C14.5724 154.024 14.8562 154.087 15.0777 154.17ZM31.1939 171.407V154.315H37.1752V176.786H31.547L31.1939 171.407ZM31.8585 166.797L33.6238 166.755C33.6238 168.251 33.4507 169.642 33.1046 170.93C32.7584 172.204 32.2392 173.311 31.547 174.253C30.8547 175.18 29.9824 175.907 28.9302 176.433C27.8779 176.946 26.6387 177.202 25.2126 177.202C24.1189 177.202 23.1081 177.049 22.1805 176.745C21.2667 176.426 20.4775 175.935 19.8129 175.27C19.1622 174.592 18.6499 173.727 18.2761 172.674C17.9161 171.608 17.7361 170.327 17.7361 168.832V154.315H23.7173V168.874C23.7173 169.538 23.7935 170.099 23.9458 170.556C24.1119 171.013 24.3404 171.387 24.6311 171.677C24.9219 171.968 25.2611 172.176 25.6488 172.3C26.0503 172.425 26.4934 172.487 26.9779 172.487C28.2102 172.487 29.1794 172.238 29.8855 171.74C30.6055 171.241 31.1108 170.563 31.4016 169.704C31.7062 168.832 31.8585 167.863 31.8585 166.797Z" fill="black"/>
<rect x="6.47872" y="108.709" width="27.3573" height="27.3573" fill="black" stroke="black" stroke-width="1.43986"/>
<rect x="6.47872" y="72.7128" width="27.3573" height="27.3573" fill="black" stroke="black" stroke-width="1.43986"/>
<rect x="6.47872" y="36.7163" width="27.3573" height="27.3573" fill="black" stroke="black" stroke-width="1.43986"/>
<rect x="6.47872" y="0.719928" width="27.3573" height="27.3573" fill="black" stroke="black" stroke-width="1.43986"/>
</svg>
