<svg width="37" height="37" viewBox="0 0 37 37" fill="none" xmlns="http://www.w3.org/2000/svg">
<path d="M18.5 37C28.7173 37 37 28.7173 37 18.5C37 8.28273 28.7173 0 18.5 0C8.28273 0 0 8.28273 0 18.5C0 28.7173 8.28273 37 18.5 37Z" fill="black"/>
<g clip-path="url(#clip0_6192_143)">
<path d="M26.9891 9.68484L23.2156 29.5374C23.1262 30.0085 22.5516 30.1632 22.2529 29.7963L17.2591 23.655L17.3176 23.5694L25.4921 11.2803C25.5916 11.1312 25.6032 10.9399 25.5235 10.7812C25.4426 10.6212 25.2793 10.5176 25.1075 10.5176C25.005 10.5176 24.9063 10.5529 24.8228 10.62L12.5176 20.4607L7.35508 18.4099C6.89118 18.2254 6.87957 17.5478 7.33728 17.3469L26.2331 9.04623C26.6405 8.86739 27.075 9.23432 26.9891 9.68484Z" fill="#AAD7B8"/>
<path d="M25.0196 10.8857L12.8711 20.601L14.3421 25.7898C14.4679 26.2327 15.0296 26.3307 15.2873 25.9546L17.0551 23.3752L25.2266 11.0898C25.3202 10.9488 25.1504 10.7812 25.0196 10.8857Z" fill="#AAD7B8"/>
</g>
<defs>
<clipPath id="clip0_6192_143">
<rect width="20" height="21" fill="white" transform="translate(7 9)"/>
</clipPath>
</defs>
</svg>
